<svg width="40" height="40" viewBox="0 0 40 40" fill="none" xmlns="http://www.w3.org/2000/svg">
<path d="M38.9589 11.5553C38.935 9.91227 38.6312 8.28229 38.0495 6.74564C37.0316 4.12161 34.9588 2.0467 32.3348 1.03095C30.8177 0.460128 29.2137 0.154099 27.5903 0.119373C25.5023 0.0260451 24.8404 0 19.5402 0C14.2401 0 13.5607 1.45537e-07 11.488 0.119373C9.86669 0.154099 8.26276 0.460128 6.74564 1.03095C4.12161 2.0467 2.0467 4.12161 1.03095 6.74564C0.460127 8.26276 0.151929 9.86669 0.121543 11.488C0.0282153 13.5781 0 14.2401 0 19.5402C0 24.8404 -1.61708e-08 25.5175 0.121543 27.5924C0.154099 29.2159 0.460127 30.8177 1.03095 32.3391C2.04887 34.961 4.12161 37.0359 6.74781 38.0517C8.25842 38.642 9.86235 38.9763 11.4902 39.0283C13.5803 39.1217 14.2422 39.1499 19.5424 39.1499C24.8425 39.1499 25.5219 39.1499 27.5946 39.0283C29.2159 38.9958 30.8198 38.6898 32.3391 38.1189C34.9632 37.101 37.0359 35.0261 38.0538 32.4042C38.6246 30.885 38.9307 29.2832 38.9632 27.6576C39.0566 25.5696 39.0848 24.9076 39.0848 19.6053C39.0804 14.3052 39.0804 13.6324 38.9589 11.5553ZM19.5272 29.5632C13.984 29.5632 9.49338 25.0726 9.49338 19.5294C9.49338 13.9861 13.984 9.49555 19.5272 9.49555C25.0661 9.49555 29.561 13.9861 29.561 19.5294C29.561 25.0726 25.0661 29.5632 19.5272 29.5632ZM29.9604 11.4641C28.6646 11.4641 27.6207 10.418 27.6207 9.12441C27.6207 7.83085 28.6646 6.78471 29.9604 6.78471C31.2518 6.78471 32.2979 7.83085 32.2979 9.12441C32.2979 10.418 31.2518 11.4641 29.9604 11.4641Z" fill="#22D07A"/>
<path d="M19.5273 26.0471C23.1269 26.0471 26.045 23.129 26.045 19.5293C26.045 15.9297 23.1269 13.0116 19.5273 13.0116C15.9276 13.0116 13.0095 15.9297 13.0095 19.5293C13.0095 23.129 15.9276 26.0471 19.5273 26.0471Z" fill="#22D07A"/>
</svg>
