<svg width="12" height="12" viewBox="0 0 12 12" fill="none" xmlns="http://www.w3.org/2000/svg">
<path d="M11.6085 6.31671C11.8605 5.99345 12 5.59738 12 5.1853C12 4.5315 11.6235 3.91264 11.0175 3.56754C10.8615 3.4787 10.6839 3.43195 10.503 3.43212H6.906L6.996 1.64253C7.017 1.21006 6.8595 0.799428 6.5535 0.486359C6.40333 0.33205 6.22215 0.209276 6.02117 0.125624C5.82019 0.0419728 5.60367 -0.000779051 5.385 1.07465e-05C4.605 1.07465e-05 3.915 0.509657 3.708 1.23918L2.4195 5.76775H2.415V12H9.4995C9.6375 12 9.7725 11.9738 9.897 11.9214C10.611 11.6258 11.0715 10.9487 11.0715 10.1973C11.0715 10.0138 11.0445 9.83327 10.9905 9.65854C11.2425 9.33528 11.382 8.93921 11.382 8.52712C11.382 8.34365 11.355 8.16309 11.301 7.98835C11.553 7.66509 11.6925 7.26903 11.6925 6.85694C11.6895 6.67347 11.6625 6.49145 11.6085 6.31671ZM0 6.23372V11.534C0 11.7918 0.2145 12 0.48 12H1.455V5.76775H0.48C0.2145 5.76775 0 5.97598 0 6.23372Z" fill="#22D07A"/>
</svg>
