<svg width="39" height="39" viewBox="0 0 39 39" fill="none" xmlns="http://www.w3.org/2000/svg">
<mask id="mask0_230_2943" style="mask-type:alpha" maskUnits="userSpaceOnUse" x="0" y="0" width="39" height="39">
<path d="M0 0V39H39V0H0ZM17.3124 10.4284C18.4167 10.417 19.4967 10.5394 20.0237 10.5546C21.9769 10.6108 22.3219 11.5987 22.2969 12.4113C22.2604 13.6013 21.4947 18.6353 22.9134 19.1263C24.9807 18.0208 26.3671 14.5874 27.3766 12.4113C27.8873 11.3106 27.8065 11.2559 28.9833 11.2544L33.6584 11.2472C34.7842 11.2458 34.7403 11.2064 35.1009 11.6662C35.9398 12.7357 32.4539 17.1845 31.328 18.4146C29.2503 20.6846 30.4625 21.5637 30.7972 21.8756C32.3478 23.3213 33.846 24.8205 34.7772 26.2031C35.5175 27.3023 35.2117 28.3258 34.2701 28.3645L29.2571 28.5716C27.5935 28.64 25.0069 25.6579 24.594 25.0082C24.2601 24.4722 22.6508 23.8006 22.4993 25.17L22.2874 27.0814C22.1335 28.4477 21.1247 28.4159 20.3284 28.4501C14.8141 28.6874 12.9362 26.5879 10.1594 23.4894C8.12419 20.6112 6.18202 17.7164 4.57265 14.2488C4.09094 13.2108 3.83578 12.4494 3.77045 11.6423C4.58022 11.0094 7.42258 11.282 9.33101 11.24C9.85299 11.2285 10.2052 11.5276 10.4807 12.1231C11.5559 14.4473 12.7284 16.7296 14.2798 18.7477C14.9555 19.37 15.5527 19.5988 15.8509 18.3335C16.024 18.3176 16.0101 16.2222 16.0199 14.6415C16.0266 13.5562 15.8991 12.2547 14.0608 11.6542C14.4327 10.6795 15.8927 10.4431 17.3124 10.4284Z" fill="#22D07A"/>
</mask>
<g mask="url(#mask0_230_2943)">
<rect width="39" height="39" rx="11" fill="#22D07A"/>
</g>
</svg>
