<svg width="41" height="41" viewBox="0 0 41 41" fill="none" xmlns="http://www.w3.org/2000/svg">
<path d="M37.0245 40.7868L26.8352 30.6155C23.894 32.8525 20.5676 33.971 16.8561 33.971C13.8448 33.971 11.0437 33.237 8.45257 31.7689C5.86149 30.231 3.83065 28.1688 2.36003 25.5822C0.819393 22.9957 0.0490723 20.1995 0.0490723 17.1935C0.0490723 14.1875 0.819393 11.3913 2.36003 8.80476C3.83065 6.21823 5.86149 4.19095 8.45257 2.72292C11.0437 1.18498 13.8448 0.416016 16.8561 0.416016C19.8673 0.416016 22.6685 1.18498 25.2596 2.72292C27.8507 4.19095 29.9165 6.21823 31.4572 8.80476C32.9278 11.3913 33.6631 14.1875 33.6631 17.1935C33.6631 20.9684 32.5076 24.3239 30.1966 27.26L40.3859 37.4314L37.0245 40.7868ZM16.751 29.0426C20.0424 29.0426 22.8436 27.8892 25.1545 25.5822C27.3955 23.2753 28.5159 20.514 28.5159 17.2984C28.5159 14.0128 27.3955 11.2515 25.1545 9.01448C22.8436 6.70757 20.0424 5.55412 16.751 5.55412C13.5297 5.55412 10.7635 6.70757 8.45257 9.01448C6.14161 11.2515 4.98613 14.0128 4.98613 17.2984C4.98613 20.514 6.14161 23.2753 8.45257 25.5822C10.7635 27.8892 13.5297 29.0426 16.751 29.0426Z" fill="#204233"/>
</svg>
