<svg width="41" height="41" viewBox="0 0 41 41" fill="none" xmlns="http://www.w3.org/2000/svg">
<path d="M37.0245 40.7867L26.8352 30.6154C23.894 32.8524 20.5676 33.9709 16.8561 33.9709C13.8448 33.9709 11.0437 33.2369 8.45257 31.7688C5.86149 30.2309 3.83065 28.1687 2.36003 25.5821C0.819393 22.9956 0.0490723 20.1994 0.0490723 17.1934C0.0490723 14.1874 0.819393 11.3912 2.36003 8.80464C3.83065 6.21811 5.86149 4.19083 8.45257 2.7228C11.0437 1.18486 13.8448 0.415894 16.8561 0.415894C19.8673 0.415894 22.6685 1.18486 25.2596 2.7228C27.8507 4.19083 29.9165 6.21811 31.4572 8.80464C32.9278 11.3912 33.6631 14.1874 33.6631 17.1934C33.6631 20.9683 32.5076 24.3238 30.1966 27.2599L40.3859 37.4312L37.0245 40.7867ZM16.751 29.0425C20.0424 29.0425 22.8436 27.889 25.1545 25.5821C27.3955 23.2752 28.5159 20.5139 28.5159 17.2982C28.5159 14.0127 27.3955 11.2514 25.1545 9.01436C22.8436 6.70745 20.0424 5.554 16.751 5.554C13.5297 5.554 10.7635 6.70745 8.45257 9.01436C6.14161 11.2514 4.98613 14.0127 4.98613 17.2982C4.98613 20.5139 6.14161 23.2752 8.45257 25.5821C10.7635 27.889 13.5297 29.0425 16.751 29.0425Z" fill="#204233"/>
</svg>
