<svg width="21" height="21" viewBox="0 0 21 21" fill="none" xmlns="http://www.w3.org/2000/svg">
<path d="M0 0V21H21V0H0ZM9.32207 5.61529C9.91667 5.60913 10.4983 5.67506 10.782 5.68323C11.8337 5.71351 12.0195 6.24545 12.006 6.68299C11.9863 7.32379 11.5741 10.0344 12.338 10.2988C13.4512 9.70352 14.1976 7.85474 14.7412 6.68299C15.0162 6.0903 14.9728 6.06084 15.6064 6.06006L18.1238 6.05621C18.73 6.05546 18.7063 6.03419 18.9005 6.2818C19.3522 6.85769 17.4752 9.25319 16.8689 9.91553C15.7502 11.1379 16.4029 11.6112 16.5831 11.7792C17.418 12.5576 18.2248 13.3649 18.7262 14.1094C19.1248 14.7013 18.9602 15.2523 18.4532 15.2732L15.7538 15.3847C14.8581 15.4215 13.4652 13.8158 13.2429 13.4659C13.0631 13.1774 12.1966 12.8157 12.115 13.5531L12.0009 14.5823C11.918 15.318 11.3748 15.3008 10.946 15.3193C7.97683 15.447 6.96567 14.3166 5.47043 12.6481C4.37456 11.0983 3.32878 9.53962 2.4622 7.67242C2.20281 7.11351 2.06542 6.7035 2.03025 6.26892C2.46627 5.92812 3.99677 6.07492 5.02439 6.05231C5.30546 6.04611 5.49511 6.20716 5.64347 6.52783C6.22239 7.77931 6.85375 9.00826 7.68913 10.0949C8.05294 10.43 8.37455 10.5532 8.53508 9.87191C8.62829 9.86333 8.6208 8.73504 8.62608 7.88391C8.62971 7.29951 8.56105 6.59869 7.57122 6.27532C7.77143 5.75052 8.5576 5.62322 9.32207 5.61529Z" fill="#22D07A"/>
</svg>
