<svg width="70" height="70" viewBox="0 0 70 70" fill="none" xmlns="http://www.w3.org/2000/svg">
<circle cx="35" cy="35" r="35" fill="#204233"/>
<path fill-rule="evenodd" clip-rule="evenodd" d="M28.7636 17.5879C20.6099 17.5879 14 24.1978 14 32.3515C14 50.6788 38.4364 54.2424 38.4364 54.2424V47.1152H39.9636C48.1173 47.1152 54.7273 40.5052 54.7273 32.3515C54.7273 24.1978 48.1173 17.5879 39.9636 17.5879H28.7636ZM34.3636 35.4061C35.7694 35.4061 36.9091 34.2664 36.9091 32.8606C36.9091 31.4548 35.7694 30.3152 34.3636 30.3152C32.9578 30.3152 31.8182 31.4548 31.8182 32.8606C31.8182 34.2664 32.9578 35.4061 34.3636 35.4061ZM45.0545 32.8606C45.0545 34.2664 43.9149 35.4061 42.5091 35.4061C41.1033 35.4061 39.9636 34.2664 39.9636 32.8606C39.9636 31.4548 41.1033 30.3152 42.5091 30.3152C43.9149 30.3152 45.0545 31.4548 45.0545 32.8606ZM26.2182 35.4061C27.624 35.4061 28.7636 34.2664 28.7636 32.8606C28.7636 31.4548 27.624 30.3152 26.2182 30.3152C24.8124 30.3152 23.6727 31.4548 23.6727 32.8606C23.6727 34.2664 24.8124 35.4061 26.2182 35.4061Z" fill="#22D07A"/>
</svg>
